HIERARCHY
ROOT Hips
{
    OFFSET 0.000000 0.000000 0.000000
    CHANNELS 6 Xposition Yposition Zposition Zrotation Xrotation Yrotation
    JOINT Spine
    {
        OFFSET -0.000000 7.790525 0.000000
        CHANNELS 3 Zrotation Xrotation Yrotation
        JOINT Spine1
        {
            OFFSET -0.000000 20.430923 0.000000
            CHANNELS 3 Zrotation Xrotation Yrotation
            JOINT Neck
            {
                OFFSET -0.000000 22.331051 0.000000
                CHANNELS 3 Zrotation Xrotation Yrotation
                JOINT Head
                {
                    OFFSET -0.000000 14.725992 1.900128
                    CHANNELS 3 Zrotation Xrotation Yrotation
                    End Site
                    {
                        OFFSET -0.000000 19.001280 0.000000
                    }
                }
            }
            JOINT LeftShoulder
            {
                OFFSET 3.812537 19.294388 -0.177115
                CHANNELS 3 Zrotation Xrotation Yrotation
                JOINT LeftArm
                {
                    OFFSET 9.162892 0.000000 0.000000
                    CHANNELS 3 Zrotation Xrotation Yrotation
                    JOINT LeftForeArm
                    {
                        OFFSET 30.063545 0.000000 0.000000
                        CHANNELS 3 Zrotation Xrotation Yrotation
                        JOINT LeftHand
                        {
                            OFFSET 28.325521 0.000000 0.000000
                            CHANNELS 3 Zrotation Xrotation Yrotation
                            End Site
                            {
                                OFFSET 14.250961 0.000000 0.000000
                            }
                        }
                    }
                }
            }
            JOINT RightShoulder
            {
                OFFSET -3.786349 19.294388 -0.177115
                CHANNELS 3 Zrotation Xrotation Yrotation
                JOINT RightArm
                {
                    OFFSET -9.162892 0.000000 0.000000
                    CHANNELS 3 Zrotation Xrotation Yrotation
                    JOINT RightForeArm
                    {
                        OFFSET -30.063545 0.000000 0.000000
                        CHANNELS 3 Zrotation Xrotation Yrotation
                        JOINT RightHand
                        {
                            OFFSET -28.325521 0.000000 0.000000
                            CHANNELS 3 Zrotation Xrotation Yrotation
                            End Site
                            {
                                OFFSET -14.250961 0.000000 0.000000
                            }
                        }
                    }
                }
            }
        }
    }
    JOINT LeftUpLeg
    {
        OFFSET 9.500640 0.000000 0.000000
        CHANNELS 3 Zrotation Xrotation Yrotation
        JOINT LeftLeg
        {
            OFFSET -0.000000 -41.640518 0.000000
            CHANNELS 3 Zrotation Xrotation Yrotation
            JOINT LeftFoot
            {
                OFFSET -0.000000 -37.182968 0.000000
                CHANNELS 3 Zrotation Xrotation Yrotation
                JOINT LeftToeBase
                {
                    OFFSET -0.000000 -6.175416 14.250961
                    CHANNELS 3 Zrotation Xrotation Yrotation
                    End Site
                    {
                        OFFSET -0.000000 0.000000 3.800256
                    }
                }
            }
        }
    }
    JOINT RightUpLeg
    {
        OFFSET -9.500640 0.000000 0.000000
        CHANNELS 3 Zrotation Xrotation Yrotation
        JOINT RightLeg
        {
            OFFSET -0.000000 -41.640518 0.000000
            CHANNELS 3 Zrotation Xrotation Yrotation
            JOINT RightFoot
            {
                OFFSET -0.000000 -37.182968 0.000000
                CHANNELS 3 Zrotation Xrotation Yrotation
                JOINT RightToeBase
                {
                    OFFSET -0.000000 -6.175416 14.250961
                    CHANNELS 3 Zrotation Xrotation Yrotation
                    End Site
                    {
                        OFFSET -0.000000 0.000000 3.800256
                    }
                }
            }
        }
    }
}
MOTION
Frames:    10
Frame Time:    0.010000
33.355511    89.370155    76.833817    0.039102    -0.322600    2.845224    -2.051022    -10.201857    0.567782    2.869459    5.196975    0.120257    -1.648666    12.428461    1.259543    0.746492    1.664750    0.794715    -4.281717    7.786767    2.332827    -63.638783    66.642128    -14.108037    14.291899    -26.986931    -2.768871    -26.654762    -25.367443    -6.145900    -1.042419    8.076422    -5.374316    -87.741837    82.828430    161.562607    -23.854837    -31.272594    -0.074263    24.820908    -29.180449    11.040014    -0.187247    3.152293    1.888205    -1.224991    3.266352    0.837808    1.375968    -7.597669    13.644962    0.000000    0.000000    0.000000    -3.267249    3.060726    -0.023490    2.534323    4.385589    0.189158    -1.842327    -7.684392    -6.701489    0.000000    0.000000    0.000000    
33.348488    89.374649    76.846466    0.033889    -0.342151    2.866232    -2.042261    -10.223260    0.558553    2.853674    5.252599    0.116351    -1.621252    12.415925    1.247649    0.709185    1.643818    0.794784    -4.226932    7.705055    2.350304    -63.767250    66.612061    -14.003884    14.284207    -26.975721    -2.767202    -26.759361    -25.339115    -6.201350    -1.043190    8.068118    -5.379264    -87.848846    82.771889    161.691040    -23.885216    -31.287880    -0.115507    24.836742    -29.201302    11.045078    -0.174451    3.183474    1.843713    -1.222304    3.254724    0.900297    1.386796    -7.567812    13.602616    0.000000    0.000000    0.000000    -3.251231    3.099130    -0.041238    2.527236    4.376508    0.240647    -1.924186    -7.680607    -6.737987    0.000000    0.000000    0.000000    
33.349056    89.373230    76.848053    0.045664    -0.333250    2.853991    -2.029736    -10.221560    0.579018    2.819820    5.245780    0.124567    -1.620366    12.395463    1.248179    0.732069    1.664700    0.792419    -4.274779    7.751526    2.292558    -63.789383    66.206558    -13.864766    14.133625    -26.715107    -2.998614    -26.799971    -25.078505    -6.069945    -1.020448    8.086194    -5.428534    -87.714050    82.705879    161.557541    -23.901779    -31.290825    -0.151245    24.847944    -29.202419    11.083951    -0.192606    3.176992    1.878779    -1.211392    3.258772    0.868055    1.364095    -7.593759    13.601876    0.000000    0.000000    0.000000    -3.270121    3.083303    -0.026429    2.538422    4.386602    0.233713    -0.145222    -7.375969    -6.962365    0.000000    0.000000    0.000000    
33.346272    89.370644    76.852982    0.059084    -0.340087    2.855671    -2.055919    -10.196538    0.583488    2.867682    5.237185    0.124608    -1.698130    12.340311    1.256665    0.773584    1.697397    0.777000    -4.290371    7.737182    2.340273    -63.780521    66.198593    -13.884635    14.201467    -26.673298    -2.973434    -27.095638    -25.014151    -6.107169    -1.102859    8.102883    -5.504436    -86.897881    83.380943    160.476318    -23.675838    -31.174625    1.010133    24.454233    -29.016073    10.506428    -0.276750    3.177936    1.967649    -1.143556    3.237930    0.681704    0.391252    -7.557604    14.060480    0.000000    0.000000    0.000000    -3.284025    3.095038    -0.039575    2.546309    4.386978    0.227896    -2.272957    -7.578469    -6.634569    0.000000    0.000000    0.000000    
33.341312    89.371284    76.858131    0.055354    -0.335611    2.868416    -2.053558    -10.222959    0.581155    2.878804    5.265715    0.122861    -1.680170    12.376475    1.246061    0.696962    1.625535    0.781286    -4.306973    7.803974    2.360417    -63.589294    66.000214    -14.065454    14.145244    -26.490421    -3.011426    -27.329189    -24.801861    -6.161121    -1.107980    8.044162    -5.454094    -87.329689    83.464622    160.912369    -23.691000    -31.169922    1.014024    24.428932    -29.020109    10.466965    -0.267603    3.174695    1.972874    -1.143895    3.218700    0.965209    0.387622    -7.523064    13.728817    0.000000    0.000000    0.000000    -3.274614    3.100206    -0.033436    2.544452    4.378430    0.225667    -1.725858    -7.537263    -6.746617    0.000000    0.000000    0.000000    
33.338268    89.372253    76.862190    0.057225    -0.332002    2.876408    -2.032848    -10.229418    0.579969    2.845611    5.280372    0.123118    -1.706669    12.333308    1.252910    0.730453    1.661964    0.777582    -4.167461    7.885049    2.195659    -63.849735    65.616776    -13.911974    14.146155    -26.397957    -3.068145    -27.518673    -24.689316    -6.172499    -1.111489    8.102259    -5.518151    -87.025833    83.303062    160.644211    -23.762398    -31.193779    0.914568    24.484333    -29.047106    10.521625    -0.265443    3.182054    1.967285    -1.155620    3.215418    0.671795    0.411679    -7.542606    14.059911    0.000000    0.000000    0.000000    -3.274021    3.099678    -0.062716    2.540473    4.382381    0.271874    -1.899128    -7.697773    -6.759336    0.000000    0.000000    0.000000    
33.332115    89.370552    76.866577    0.056368    -0.322730    2.882328    -2.026155    -10.264856    0.589124    2.839320    5.304361    0.125898    -1.695474    12.398978    1.240560    0.676769    1.569535    0.774754    -4.284389    7.788262    2.356050    -63.628387    65.694038    -14.009427    14.175312    -26.384407    -2.998674    -27.776402    -24.662169    -6.204057    -1.116161    8.046210    -5.453795    -87.168037    83.455460    160.788376    -23.707346    -31.154650    0.975871    24.571531    -28.979387    10.571008    -0.265747    3.156412    1.966393    -1.138262    3.231169    0.978258    0.266307    -7.522413    13.750595    0.000000    0.000000    0.000000    -3.270120    3.095829    -0.072852    2.545120    4.379666    0.236022    -1.402586    -7.668556    -6.806560    0.000000    0.000000    0.000000    
33.317291    89.389191    76.848137    -0.044823    -0.335610    2.784364    -1.890098    -10.197038    0.683668    2.831609    5.237673    0.154701    -1.688364    12.407830    1.235767    0.618951    1.559398    0.779773    -4.278771    7.801216    2.394881    -63.476772    64.932213    -14.040276    13.492283    -26.145159    -3.501708    -27.087450    -24.485672    -5.895472    -1.122144    8.082001    -5.453841    -86.804375    83.490578    160.422104    -23.544863    -31.313829    1.150583    23.709505    -29.280788    10.049499    0.442286    2.889845    -0.184675    -2.537521    4.108493    -0.498179    1.296644    -8.166273    17.502523    0.000000    0.000000    0.000000    -3.146075    3.052530    0.049696    2.511058    4.407326    0.187484    -1.310878    -7.572759    -6.814994    0.000000    0.000000    0.000000    
33.325363    89.385223    76.855972    -0.038785    -0.308685    2.801510    -1.856314    -10.244940    0.690249    2.809448    5.251414    0.156989    -1.759988    12.448493    1.252581    0.656340    1.510024    0.774090    -4.281231    7.715720    2.411420    -63.562073    65.355438    -14.044115    13.930707    -26.352734    -3.059136    -27.533632    -24.654200    -6.149191    -1.239218    7.922496    -5.478656    -87.192574    83.701683    160.900177    -23.355833    -31.187681    1.325130    23.613298    -29.160917    9.880999    -0.117103    3.124890    1.883564    -1.285596    3.299092    0.909343    0.477777    -7.598732    14.026092    0.000000    0.000000    0.000000    -3.169531    3.035327    -0.016006    2.536519    4.415729    0.236227    -0.274421    -7.327465    -6.929539    0.000000    0.000000    0.000000    
33.320381    89.385658    76.861694    -0.030210    -0.306420    2.813548    -1.862992    -10.246810    0.697301    2.813828    5.249941    0.159333    -1.773933    12.450442    1.258916    0.628998    1.501882    0.781134    -4.264842    7.712089    2.450463    -63.570446    65.156837    -14.037599    13.915951    -26.286839    -3.109721    -27.731997    -24.579987    -6.112954    -1.140410    8.150897    -5.468386    -85.191559    83.752228    158.794983    -23.367046    -31.182579    1.365282    23.610348    -29.154339    9.849703    -0.079905    3.144774    1.859022    -1.288655    3.303421    0.954876    1.395328    -7.626993    13.645663    0.000000    0.000000    0.000000    -3.170173    3.042935    -0.033647    2.526845    4.409264    0.215221    0.101962    -7.462643    -6.988728    0.000000    0.000000    0.000000    
